<?xml version="1.0" encoding="UTF-8" standalone="no"?>
<svg
   xmlns:dc="http://purl.org/dc/elements/1.1/"
   xmlns:cc="http://creativecommons.org/ns#"
   xmlns:rdf="http://www.w3.org/1999/02/22-rdf-syntax-ns#"
   xmlns:svg="http://www.w3.org/2000/svg"
   xmlns="http://www.w3.org/2000/svg"
   xmlns:sodipodi="http://sodipodi.sourceforge.net/DTD/sodipodi-0.dtd"
   xmlns:inkscape="http://www.inkscape.org/namespaces/inkscape"
   sodipodi:docname="Oracle_Corporation_logo.svg"
   inkscape:version="1.0 (4035a4fb49, 2020-05-01)"
   id="svg142"
   version="1.1"
   viewBox="0 0 132.92801 83.820839"
   height="316.80316"
   width="502.40506">
  <g
     transform="translate(45.523453,-109.56914)"
     id="layer1"
     inkscape:groupmode="layer"
     inkscape:label="Layer 1">
    <path
       id="path112"
       d="m -3.613028,193.38998 c -23.283574,0 -41.910425,-18.62674 -41.910425,-41.91034 0,-23.28358 18.626851,-41.9105 41.910425,-41.9105 H 45.49413 c 23.28356,0 41.91042,18.62692 41.91042,41.9105 0,23.2836 -18.62686,41.91034 -41.910419,41.91034 H -3.613028 M 44.224118,178.5732 c 15.240152,0 27.093592,-12.27676 27.093592,-27.09356 0,-15.24014 -12.27679,-27.09354 -27.093592,-27.09354 H -2.343015 c -15.24015,0 -27.093611,12.27676 -27.093611,27.09354 0,14.8168 12.276792,27.09356 27.09361,27.09356 h 46.567134"
       inkscape:connector-curvature="0"
       style="fill:#c74634;stroke-width:0.264582" />
  </g>
</svg>
